<svg xmlns="http://www.w3.org/2000/svg" xmlns:xlink="http://www.w3.org/1999/xlink" contentStyleType="text/css" data-diagram-type="DESCRIPTION" height="1494px" preserveAspectRatio="none" style="width:539px;height:1494px;background:#FFFFFF;" version="1.1" viewBox="0 0 539 1494" width="539px" zoomAndPan="magnify" ml-update="aware"><?plantuml 1.2026.7beta1?><defs/><g><g class="title" data-source-line="1"><text fill="#000000" font-family="Arial" font-size="14" font-weight="700" lengthAdjust="spacing" textLength="348.9814" x="91.5093" y="22.9951">Keycloak HA Cluster — Deployment diagram</text></g><!--cluster vm1--><g class="cluster" data-qualified-name="vm1" data-source-line="7" id="ent0003"><polygon fill="none" points="16,347.9869,26,337.9869,253,337.9869,253,1050.9069,243,1060.9069,16,1060.9069,16,347.9869" style="stroke:#181818;stroke-width:1;stroke-linejoin:miter;stroke-miterlimit:10;"/><line style="stroke:#181818;stroke-width:1;" x1="243" x2="253" y1="347.9869" y2="337.9869"/><line style="stroke:#181818;stroke-width:1;" x1="16" x2="243" y1="347.9869" y2="347.9869"/><line style="stroke:#181818;stroke-width:1;" x1="243" x2="243" y1="347.9869" y2="1060.9069"/><text fill="#000000" font-family="Arial" font-size="14" font-weight="700" lengthAdjust="spacing" textLength="33.4551" x="111.3354" y="363.982">vm1</text><text fill="#000000" font-family="Arial" font-size="14" font-weight="700" lengthAdjust="spacing" textLength="132.8496" x="64.0752" y="380.2789">192.168.182.140</text></g><!--cluster vm2--><g class="cluster" data-qualified-name="vm2" data-source-line="15" id="ent0010"><polygon fill="none" points="277,519.5869,287,509.5869,514,509.5869,514,1193.1469,504,1203.1469,277,1203.1469,277,519.5869" style="stroke:#181818;stroke-width:1;stroke-linejoin:miter;stroke-miterlimit:10;"/><line style="stroke:#181818;stroke-width:1;" x1="504" x2="514" y1="519.5869" y2="509.5869"/><line style="stroke:#181818;stroke-width:1;" x1="277" x2="504" y1="519.5869" y2="519.5869"/><line style="stroke:#181818;stroke-width:1;" x1="504" x2="504" y1="519.5869" y2="1203.1469"/><text fill="#000000" font-family="Arial" font-size="14" font-weight="700" lengthAdjust="spacing" textLength="33.4551" x="372.3354" y="535.582">vm2</text><text fill="#000000" font-family="Arial" font-size="14" font-weight="700" lengthAdjust="spacing" textLength="132.8496" x="325.0752" y="551.8789">192.168.182.141</text></g><!--cluster vm3--><g class="cluster" data-qualified-name="vm3" data-source-line="23" id="ent0017"><polygon fill="none" points="140,1262.1469,150,1252.1469,348,1252.1469,348,1366.7369,338,1376.7369,140,1376.7369,140,1262.1469" style="stroke:#181818;stroke-width:1;stroke-linejoin:miter;stroke-miterlimit:10;"/><line style="stroke:#181818;stroke-width:1;" x1="338" x2="348" y1="1262.1469" y2="1252.1469"/><line style="stroke:#181818;stroke-width:1;" x1="140" x2="338" y1="1262.1469" y2="1262.1469"/><line style="stroke:#181818;stroke-width:1;" x1="338" x2="338" y1="1262.1469" y2="1376.7369"/><text fill="#000000" font-family="Arial" font-size="14" font-weight="700" lengthAdjust="spacing" textLength="33.4551" x="220.8354" y="1278.142">vm3</text><text fill="#000000" font-family="Arial" font-size="14" font-weight="700" lengthAdjust="spacing" textLength="132.8496" x="173.5752" y="1294.4389">192.168.182.142</text></g><!--entity haproxy_kc_1--><g class="entity" data-qualified-name="vm1.haproxy_kc_1" data-source-line="8" id="ent0004"><rect fill="#F1F1F1" height="52.5938" rx="2.5" ry="2.5" style="stroke:#181818;stroke-width:0.5;" width="102.8447" x="31.58" y="393.9869"/><text fill="#000000" font-family="Arial" font-size="14" lengthAdjust="spacing" textLength="82.8447" x="41.58" y="416.982">HAProxy KC</text><text fill="#000000" font-family="Arial" font-size="14" lengthAdjust="spacing" textLength="22.5313" x="41.58" y="433.2789">:80</text></g><!--entity keycloak_1--><g class="entity" data-qualified-name="vm1.keycloak_1" data-source-line="9" id="ent0005"><rect fill="#F1F1F1" height="52.5938" rx="2.5" ry="2.5" style="stroke:#181818;stroke-width:0.5;" width="82.918" x="54.54" y="565.5869"/><text fill="#000000" font-family="Arial" font-size="14" lengthAdjust="spacing" textLength="62.918" x="64.54" y="588.582">Keycloak</text><text fill="#000000" font-family="Arial" font-size="14" lengthAdjust="spacing" textLength="40.3457" x="64.54" y="604.8789">:8080</text></g><!--entity pg_haproxy_1--><g class="entity" data-qualified-name="vm1.pg_haproxy_1" data-source-line="10" id="ent0006"><rect fill="#F1F1F1" height="52.5938" rx="2.5" ry="2.5" style="stroke:#181818;stroke-width:0.5;" width="102.0039" x="59" y="695.1769"/><text fill="#000000" font-family="Arial" font-size="14" lengthAdjust="spacing" textLength="82.0039" x="69" y="718.172">pg_haproxy</text><text fill="#000000" font-family="Arial" font-size="14" lengthAdjust="spacing" textLength="40.3457" x="69" y="734.4689">:5433</text></g><!--entity pg_1--><g class="entity" data-qualified-name="vm1.pg_1" data-source-line="11" id="ent0007"><path d="M55.02,834.7669 C55.02,824.7669 137.0024,824.7669 137.0024,824.7669 C137.0024,824.7669 218.9848,824.7669 218.9848,834.7669 L218.9848,892.6575 C218.9848,902.6575 137.0024,902.6575 137.0024,902.6575 C137.0024,902.6575 55.02,902.6575 55.02,892.6575 L55.02,834.7669" fill="#F1F1F1" style="stroke:#181818;stroke-width:0.5;"/><path d="M55.02,834.7669 C55.02,844.7669 137.0024,844.7669 137.0024,844.7669 C137.0024,844.7669 218.9848,844.7669 218.9848,834.7669" fill="none" style="stroke:#181818;stroke-width:0.5;"/><text fill="#000000" font-family="Arial" font-size="14" lengthAdjust="spacing" textLength="143.9648" x="65.02" y="861.762">Patroni / PostgreSQL</text><text fill="#000000" font-family="Arial" font-size="14" lengthAdjust="spacing" textLength="125.3232" x="65.02" y="878.0589">primary or replica</text><text fill="#000000" font-family="Arial" font-size="14" lengthAdjust="spacing" textLength="40.3457" x="65.02" y="894.3557">:5432</text></g><!--entity etcd_1--><g class="entity" data-qualified-name="vm1.etcd_1" data-source-line="12" id="ent0008"><rect fill="#F1F1F1" height="52.5938" rx="2.5" ry="2.5" style="stroke:#181818;stroke-width:0.5;" width="105.4082" x="131.3" y="992.3069"/><text fill="#000000" font-family="Arial" font-size="14" lengthAdjust="spacing" textLength="30.6865" x="141.3" y="1015.302">etcd</text><text fill="#000000" font-family="Arial" font-size="14" lengthAdjust="spacing" textLength="85.4082" x="141.3" y="1031.5989">:2379/:2380</text></g><!--entity ucarp_1--><g class="entity" data-qualified-name="vm1.ucarp_1" data-source-line="13" id="ent0009"><rect fill="#F1F1F1" height="36.2969" rx="2.5" ry="2.5" style="stroke:#181818;stroke-width:0.5;" width="67.7695" x="169.12" y="402.1369"/><text fill="#000000" font-family="Arial" font-size="14" lengthAdjust="spacing" textLength="47.7695" x="179.12" y="425.132">UCARP</text></g><!--entity haproxy_kc_2--><g class="entity" data-qualified-name="vm2.haproxy_kc_2" data-source-line="16" id="ent0011"><rect fill="#F1F1F1" height="52.5938" rx="2.5" ry="2.5" style="stroke:#181818;stroke-width:0.5;" width="102.8447" x="395.58" y="565.5869"/><text fill="#000000" font-family="Arial" font-size="14" lengthAdjust="spacing" textLength="82.8447" x="405.58" y="588.582">HAProxy KC</text><text fill="#000000" font-family="Arial" font-size="14" lengthAdjust="spacing" textLength="22.5313" x="405.58" y="604.8789">:80</text></g><!--entity keycloak_2--><g class="entity" data-qualified-name="vm2.keycloak_2" data-source-line="17" id="ent0012"><rect fill="#F1F1F1" height="52.5938" rx="2.5" ry="2.5" style="stroke:#181818;stroke-width:0.5;" width="82.918" x="382.54" y="695.1769"/><text fill="#000000" font-family="Arial" font-size="14" lengthAdjust="spacing" textLength="62.918" x="392.54" y="718.172">Keycloak</text><text fill="#000000" font-family="Arial" font-size="14" lengthAdjust="spacing" textLength="40.3457" x="392.54" y="734.4689">:8080</text></g><!--entity pg_haproxy_2--><g class="entity" data-qualified-name="vm2.pg_haproxy_2" data-source-line="18" id="ent0013"><rect fill="#F1F1F1" height="52.5938" rx="2.5" ry="2.5" style="stroke:#181818;stroke-width:0.5;" width="102.0039" x="351" y="837.4169"/><text fill="#000000" font-family="Arial" font-size="14" lengthAdjust="spacing" textLength="82.0039" x="361" y="860.412">pg_haproxy</text><text fill="#000000" font-family="Arial" font-size="14" lengthAdjust="spacing" textLength="40.3457" x="361" y="876.7089">:5433</text></g><!--entity pg_2--><g class="entity" data-qualified-name="vm2.pg_2" data-source-line="19" id="ent0014"><path d="M293.02,989.6569 C293.02,979.6569 375.0024,979.6569 375.0024,979.6569 C375.0024,979.6569 456.9848,979.6569 456.9848,989.6569 L456.9848,1047.5475 C456.9848,1057.5475 375.0024,1057.5475 375.0024,1057.5475 C375.0024,1057.5475 293.02,1057.5475 293.02,1047.5475 L293.02,989.6569" fill="#F1F1F1" style="stroke:#181818;stroke-width:0.5;"/><path d="M293.02,989.6569 C293.02,999.6569 375.0024,999.6569 375.0024,999.6569 C375.0024,999.6569 456.9848,999.6569 456.9848,989.6569" fill="none" style="stroke:#181818;stroke-width:0.5;"/><text fill="#000000" font-family="Arial" font-size="14" lengthAdjust="spacing" textLength="143.9648" x="303.02" y="1016.652">Patroni / PostgreSQL</text><text fill="#000000" font-family="Arial" font-size="14" lengthAdjust="spacing" textLength="125.3232" x="303.02" y="1032.9489">primary or replica</text><text fill="#000000" font-family="Arial" font-size="14" lengthAdjust="spacing" textLength="40.3457" x="303.02" y="1049.2457">:5432</text></g><!--entity etcd_2--><g class="entity" data-qualified-name="vm2.etcd_2" data-source-line="20" id="ent0015"><rect fill="#F1F1F1" height="52.5938" rx="2.5" ry="2.5" style="stroke:#181818;stroke-width:0.5;" width="105.4082" x="293.3" y="1134.5469"/><text fill="#000000" font-family="Arial" font-size="14" lengthAdjust="spacing" textLength="30.6865" x="303.3" y="1157.542">etcd</text><text fill="#000000" font-family="Arial" font-size="14" lengthAdjust="spacing" textLength="85.4082" x="303.3" y="1173.8389">:2379/:2380</text></g><!--entity ucarp_2--><g class="entity" data-qualified-name="vm2.ucarp_2" data-source-line="21" id="ent0016"><rect fill="#F1F1F1" height="36.2969" rx="2.5" ry="2.5" style="stroke:#181818;stroke-width:0.5;" width="67.7695" x="293.12" y="573.7269"/><text fill="#000000" font-family="Arial" font-size="14" lengthAdjust="spacing" textLength="47.7695" x="303.12" y="596.722">UCARP</text></g><!--entity etcd_3--><g class="entity" data-qualified-name="vm3.etcd_3" data-source-line="24" id="ent0018"><rect fill="#F1F1F1" height="52.5938" rx="2.5" ry="2.5" style="stroke:#181818;stroke-width:0.5;" width="149.1172" x="169.44" y="1308.1469"/><text fill="#000000" font-family="Arial" font-size="14" lengthAdjust="spacing" textLength="129.1172" x="179.44" y="1331.142">etcd quorum node</text><text fill="#000000" font-family="Arial" font-size="14" lengthAdjust="spacing" textLength="85.4082" x="179.44" y="1347.4389">:2379/:2380</text></g><!--entity client--><g class="entity" data-qualified-name="client" data-source-line="5" id="ent0001"><ellipse cx="230.0033" cy="51.2969" fill="#F1F1F1" rx="8" ry="8" style="stroke:#181818;stroke-width:0.5;"/><path d="M230.0033,59.2969 L230.0033,86.2969 M217.0033,67.2969 L243.0033,67.2969 M230.0033,86.2969 L217.0033,101.2969 M230.0033,86.2969 L243.0033,101.2969" fill="none" style="stroke:#181818;stroke-width:0.5;"/><text fill="#000000" font-family="Arial" font-size="14" lengthAdjust="spacing" textLength="111.1865" x="174.41" y="115.792">Client / Browser</text></g><!--entity vip--><g class="entity" data-qualified-name="vip" data-source-line="6" id="ent0002"><path d="M123.1679,204.2637 C127.49,195.837 135.71,195.292 140.1496,204.1483 C144.4387,196.7002 150.9813,196.6004 155.8869,203.4707 C159.0075,195.7224 163.0451,195.2835 168.7202,201.044 C174.9295,193.4054 180.3986,192.2711 185.9442,201.7134 C188.8221,195.2332 195.2579,193.6639 199.8034,199.8952 C203.3243,192.1216 210.6025,191.2669 215.5109,198.4367 C220.8785,190.3375 226.4105,191.5205 231.3165,198.9079 C236.2181,192.9562 242.4548,192.4697 246.1933,200.1749 C250.9565,192.6577 256.4257,192.9665 262.1245,199.0815 C266.9924,193.4514 272.5514,192.7155 276.6486,199.9515 C281.5971,191.8832 289.0897,193.4251 292.2907,201.631 C299.2863,194.4608 304.4351,196.7625 308.5061,204.7581 C312.6834,197.5271 319.9091,197.7927 323.9793,204.874 C329.2977,197.2469 333.784,199.2878 338.3972,205.6032 C347.194,210.049 347.0784,215.3335 340.9965,222.1207 C348.7525,224.833 349.5448,230.5003 344.7117,236.4717 C351.811,242.5548 350.893,248.8585 341.721,251.7582 C348.3023,259.4654 346.6485,265.2343 337.7231,269.4342 C332.8926,276.224 327.5688,273.6215 324.4251,267.6732 C320.0348,275.9234 313.0879,277.2441 307.7763,268.58 C305.3698,276.8308 298.6321,277.5716 293.8235,270.813 C289.6154,279.8486 282.0582,279.6286 277.2973,271.3404 C273.6762,279.6967 265.645,279.1154 261.1798,272.2333 C258.0322,279.3026 251.2427,278.7978 247.3546,273.0309 C243.1312,279.532 235.5797,280.9614 231.3696,273.0164 C225.7451,281.1645 219.7842,278.8385 215.6069,271.5397 C211.6032,279.2401 206.086,278.3047 201.4108,272.2317 C195.5542,280.5635 189.4086,280.2149 184.47,271.3285 C179.4719,276.4013 173.8108,276.094 170.4749,269.3585 C165.4742,277.7496 158.5788,277.7485 153.99,268.9631 C149.6451,275.0088 144.45,273.7711 140.9158,268.0614 C136.3435,277.0337 129.5714,276.6518 123.7108,269.4302 C113.3638,267.6831 111.8053,260.1806 117.3982,252.4927 C110.2572,250.4192 107.0512,244.1799 113.4174,238.3141 C107.2074,231.2554 108.6697,221.708 119.3472,220.1678 C113.6552,213.3359 115.3936,207.8606 123.1679,204.2637" fill="#F1F1F1" style="stroke:#181818;stroke-width:0.5;"/><text fill="#000000" font-family="Arial" font-size="14" lengthAdjust="spacing" textLength="22.1484" x="129.75" y="224.092">VIP</text><text fill="#000000" font-family="Arial" font-size="14" lengthAdjust="spacing" textLength="120.2373" x="129.75" y="240.3889">192.168.182.100</text><text fill="#000000" font-family="Arial" font-size="14" lengthAdjust="spacing" textLength="200.498" x="129.75" y="256.6857">UCARP-managed entry point</text></g><g class="entity" data-qualified-name="GMN35" data-source-line="43" id="ent0036"><path d="M70.19,1423.7369 L70.19,1479.1353 A0,0 0 0 0 70.19,1479.1353 L417.8087,1479.1353 A0,0 0 0 0 417.8087,1479.1353 L417.8087,1433.7369 L407.8087,1423.7369 L248,1423.7369 L244,1360.9669 L240,1423.7369 L70.19,1423.7369 A0,0 0 0 0 70.19,1423.7369" fill="#FEFFDD" style="stroke:#181818;stroke-width:0.5;"/><path d="M407.8087,1423.7369 L407.8087,1433.7369 L417.8087,1433.7369 L407.8087,1423.7369" fill="#FEFFDD" style="stroke:#181818;stroke-width:0.5;"/><text fill="#000000" font-family="Arial" font-size="13" lengthAdjust="spacing" textLength="326.6187" x="76.19" y="1440.8038">vm1/vm2 размещают Keycloak и PostgreSQL HA.</text><text fill="#000000" font-family="Arial" font-size="13" lengthAdjust="spacing" textLength="263.085" x="84.4546" y="1455.9366">vm3 участвует только в кворуме etcd.</text><text fill="#000000" font-family="Arial" font-size="13" lengthAdjust="spacing" textLength="208.6475" x="84.4546" y="1471.0694">VIP - это точка входа клиента.</text></g><!--link client to vip--><g class="link" data-entity-1="ent0001" data-entity-2="ent0002" data-link-type="dependency" data-source-line="26" id="lnk19"><path d="M230,119.2769 C230,142.4869 230,167.2669 230,190.7369" fill="none" id="client-to-vip" style="stroke:#181818;stroke-width:1;"/><polygon fill="#181818" points="230,195.7369,234,186.7369,230,190.7369,226,186.7369,230,195.7369" style="stroke:#181818;stroke-width:1;stroke-linejoin:miter;stroke-miterlimit:10;"/><text fill="#000000" font-family="Arial" font-size="13" lengthAdjust="spacing" textLength="81.4341" x="231" y="162.1638">HTTP access</text></g><!--link vip to haproxy_kc_1--><g class="link" data-entity-1="ent0002" data-entity-2="ent0004" data-link-type="dependency" data-source-line="27" id="lnk20"><path d="M197.03,275.3769 C183.01,292.0669 166.56,311.8669 152,329.9869 C134.95,351.2169 119.1,371.7396 105.41,389.7096" fill="none" id="vip-to-haproxy_kc_1" style="stroke:#181818;stroke-width:1;"/><polygon fill="#181818" points="102.38,393.6869,111.0159,388.9517,105.41,389.7096,104.6522,384.1037,102.38,393.6869" style="stroke:#181818;stroke-width:1;stroke-linejoin:miter;stroke-miterlimit:10;"/><text fill="#000000" font-family="Arial" font-size="13" lengthAdjust="spacing" textLength="96.167" x="172" y="318.0538">active/standby</text></g><!--link vip to haproxy_kc_2--><g class="link" data-entity-1="ent0002" data-entity-2="ent0011" data-link-type="dependency" data-source-line="28" id="lnk21"><path d="M257.29,275.3369 C263.87,284.9469 270.79,295.2769 277,304.9869 C337.37,399.3569 401.3985,510.5304 430.0685,560.9504" fill="none" id="vip-to-haproxy_kc_2" style="stroke:#181818;stroke-width:1;"/><polygon fill="#181818" points="432.54,565.2969,431.5685,555.4961,430.0685,560.9504,424.6141,559.4504,432.54,565.2969" style="stroke:#181818;stroke-width:1;stroke-linejoin:miter;stroke-miterlimit:10;"/><text fill="#000000" font-family="Arial" font-size="13" lengthAdjust="spacing" textLength="96.167" x="362" y="424.8538">active/standby</text></g><!--link haproxy_kc_1 to keycloak_1--><g class="link" data-entity-1="ent0004" data-entity-2="ent0005" data-link-type="dependency" data-source-line="29" id="lnk22"><path d="M84.97,447.0469 C87.42,479.0069 91.1977,528.2215 93.6477,560.1715" fill="none" id="haproxy_kc_1-to-keycloak_1" style="stroke:#181818;stroke-width:1;"/><polygon fill="#181818" points="94.03,565.1569,97.3302,555.8774,93.6477,560.1715,89.3536,556.4891,94.03,565.1569" style="stroke:#181818;stroke-width:1;stroke-linejoin:miter;stroke-miterlimit:10;"/></g><!--link haproxy_kc_2 to keycloak_2--><g class="link" data-entity-1="ent0011" data-entity-2="ent0012" data-link-type="dependency" data-source-line="30" id="lnk23"><path d="M442.4,618.3969 C438.39,640.6469 433.4872,667.8462 429.4772,690.0862" fill="none" id="haproxy_kc_2-to-keycloak_2" style="stroke:#181818;stroke-width:1;"/><polygon fill="#181818" points="428.59,695.0069,434.1235,686.8595,429.4772,690.0862,426.2505,685.4399,428.59,695.0069" style="stroke:#181818;stroke-width:1;stroke-linejoin:miter;stroke-miterlimit:10;"/></g><!--link keycloak_1 to pg_haproxy_1--><g class="link" data-entity-1="ent0005" data-entity-2="ent0006" data-link-type="dependency" data-source-line="31" id="lnk24"><path d="M98.8,618.3969 C101.24,640.6469 104.2247,667.7967 106.6647,690.0367" fill="none" id="keycloak_1-to-pg_haproxy_1" style="stroke:#181818;stroke-width:1;"/><polygon fill="#181818" points="107.21,695.0069,110.2046,685.6243,106.6647,690.0367,102.2523,686.4968,107.21,695.0069" style="stroke:#181818;stroke-width:1;stroke-linejoin:miter;stroke-miterlimit:10;"/><text fill="#000000" font-family="Arial" font-size="13" lengthAdjust="spacing" textLength="94.688" x="105" y="661.2438">DB connection</text></g><!--link keycloak_2 to pg_haproxy_2--><g class="link" data-entity-1="ent0012" data-entity-2="ent0013" data-link-type="dependency" data-source-line="32" id="lnk25"><path d="M419.96,748.1969 C416,773.4969 410.7447,806.9673 406.7847,832.2173" fill="none" id="keycloak_2-to-pg_haproxy_2" style="stroke:#181818;stroke-width:1;"/><polygon fill="#181818" points="406.01,837.1569,411.3561,828.8853,406.7847,832.2173,403.4527,827.6458,406.01,837.1569" style="stroke:#181818;stroke-width:1;stroke-linejoin:miter;stroke-miterlimit:10;"/><text fill="#000000" font-family="Arial" font-size="13" lengthAdjust="spacing" textLength="94.688" x="415" y="790.8338">DB connection</text></g><!--link pg_haproxy_1 to pg_1--><g class="link" data-entity-1="ent0006" data-entity-2="ent0007" data-link-type="dependency" data-source-line="33" id="lnk26"><path d="M114.95,748.1969 C119.06,769.5469 124.0257,795.3169 128.6857,819.5469" fill="none" id="pg_haproxy_1-to-pg_1" style="stroke:#181818;stroke-width:1;"/><polygon fill="#181818" points="129.63,824.4569,131.8583,814.8634,128.6857,819.5469,124.0022,816.3743,129.63,824.4569" style="stroke:#181818;stroke-width:1;stroke-linejoin:miter;stroke-miterlimit:10;"/></g><!--link pg_haproxy_2 to pg_2--><g class="link" data-entity-1="ent0013" data-entity-2="ent0014" data-link-type="dependency" data-source-line="34" id="lnk27"><path d="M402.18,890.1969 C401.89,907.1769 400.71,929.9169 397,949.6569 C395.17,959.4069 393.8435,964.9315 390.8135,974.4715" fill="none" id="pg_haproxy_2-to-pg_2" style="stroke:#181818;stroke-width:1;"/><polygon fill="#181818" points="389.3,979.2369,395.8367,971.87,390.8135,974.4715,388.212,969.4483,389.3,979.2369" style="stroke:#181818;stroke-width:1;stroke-linejoin:miter;stroke-miterlimit:10;"/></g><!--link pg_1 to pg_2--><g class="link" data-entity-1="ent0007" data-entity-2="ent0014" data-link-type="dependency" data-source-line="35" id="lnk28"><path d="M188.0157,906.048 C207.5957,921.288 226.94,935.4669 249,949.6569 C264.88,959.8769 278.0532,967.6177 294.8932,976.8277" fill="none" id="pg_1-pg_2" style="stroke:#181818;stroke-width:1;"/><polygon fill="#181818" points="184.07,902.9769,188.7153,911.6614,188.0157,906.048,193.6291,905.3483,184.07,902.9769" style="stroke:#181818;stroke-width:1;stroke-linejoin:miter;stroke-miterlimit:10;"/><polygon fill="#181818" points="299.28,979.2269,293.3031,971.3989,294.8932,976.8277,289.4644,978.4178,299.28,979.2269" style="stroke:#181818;stroke-width:1;stroke-linejoin:miter;stroke-miterlimit:10;"/><text fill="#000000" font-family="Arial" font-size="13" lengthAdjust="spacing" textLength="138.9121" x="250" y="945.7238">streaming replication</text></g><!--link pg_1 to etcd_1--><g class="link" data-entity-1="ent0007" data-entity-2="ent0008" data-link-type="dependency" data-source-line="36" id="lnk29"><path d="M130.06,903.1469 C128.8,918.0069 129.17,934.9369 134,949.6569 C139.12,965.2469 146.1383,976.3481 155.9983,988.2381" fill="none" id="pg_1-to-etcd_1" style="stroke:#181818;stroke-width:1;stroke-dasharray:7,7;"/><polygon fill="#181818" points="159.19,992.0869,156.524,982.6057,155.9983,988.2381,150.3659,987.7124,159.19,992.0869" style="stroke:#181818;stroke-width:1;stroke-linejoin:miter;stroke-miterlimit:10;"/><text fill="#000000" font-family="Arial" font-size="13" lengthAdjust="spacing" textLength="77.5239" x="135" y="945.7238">Patroni DCS</text></g><!--link pg_2 to etcd_2--><g class="link" data-entity-1="ent0014" data-entity-2="ent0015" data-link-type="dependency" data-source-line="37" id="lnk30"><path d="M367.08,1057.9269 C362.04,1082.2569 356.6819,1108.1703 352.2719,1129.5103" fill="none" id="pg_2-to-etcd_2" style="stroke:#181818;stroke-width:1;stroke-dasharray:7,7;"/><polygon fill="#181818" points="351.26,1134.4069,356.9986,1126.4026,352.2719,1129.5103,349.1642,1124.7836,351.26,1134.4069" style="stroke:#181818;stroke-width:1;stroke-linejoin:miter;stroke-miterlimit:10;"/><text fill="#000000" font-family="Arial" font-size="13" lengthAdjust="spacing" textLength="77.5239" x="361" y="1100.6138">Patroni DCS</text></g><!--link etcd_1 to etcd_2--><g class="link" data-entity-1="ent0008" data-entity-2="ent0015" data-link-type="dependency" data-source-line="38" id="lnk31"><path d="M217.49,1048.5997 C246.63,1073.8297 283.2496,1105.5245 312.4196,1130.7745" fill="none" id="etcd_1-etcd_2" style="stroke:#181818;stroke-width:1;stroke-dasharray:7,7;"/><polygon fill="#181818" points="213.71,1045.3269,217.8958,1054.242,217.49,1048.5997,223.1323,1048.1939,213.71,1045.3269" style="stroke:#181818;stroke-width:1;stroke-linejoin:miter;stroke-miterlimit:10;"/><polygon fill="#181818" points="316.2,1134.0469,312.0132,1125.1323,312.4196,1130.7745,306.7774,1131.1809,316.2,1134.0469" style="stroke:#181818;stroke-width:1;stroke-linejoin:miter;stroke-miterlimit:10;"/><text fill="#000000" font-family="Arial" font-size="13" lengthAdjust="spacing" textLength="50.6924" x="280" y="1100.6138">quorum</text></g><!--link etcd_1 to etcd_3--><g class="link" data-entity-1="ent0008" data-entity-2="ent0018" data-link-type="dependency" data-source-line="39" id="lnk32"><path d="M189.8489,1050.1979 C201.1289,1109.1979 226.9006,1244.0159 238.1706,1302.9359" fill="none" id="etcd_1-etcd_3" style="stroke:#181818;stroke-width:1;stroke-dasharray:7,7;"/><polygon fill="#181818" points="188.91,1045.2869,186.6712,1054.8779,189.8489,1050.1979,194.5289,1053.3756,188.91,1045.2869" style="stroke:#181818;stroke-width:1;stroke-linejoin:miter;stroke-miterlimit:10;"/><polygon fill="#181818" points="239.11,1307.8469,241.3479,1298.2556,238.1706,1302.9359,233.4904,1299.7586,239.11,1307.8469" style="stroke:#181818;stroke-width:1;stroke-linejoin:miter;stroke-miterlimit:10;"/><text fill="#000000" font-family="Arial" font-size="13" lengthAdjust="spacing" textLength="50.6924" x="220" y="1165.4138">quorum</text></g><!--link etcd_2 to etcd_3--><g class="link" data-entity-1="ent0015" data-entity-2="ent0018" data-link-type="dependency" data-source-line="40" id="lnk33"><path d="M328.1745,1191.8345 C308.8845,1224.2745 281.0145,1271.1687 261.7645,1303.5587" fill="none" id="etcd_2-etcd_3" style="stroke:#181818;stroke-width:1;stroke-dasharray:7,7;"/><polygon fill="#181818" points="330.73,1187.5369,322.692,1193.2281,328.1745,1191.8345,329.5682,1197.317,330.73,1187.5369" style="stroke:#181818;stroke-width:1;stroke-linejoin:miter;stroke-miterlimit:10;"/><polygon fill="#181818" points="259.21,1307.8569,267.2467,1302.1637,261.7645,1303.5587,260.3695,1298.0765,259.21,1307.8569" style="stroke:#181818;stroke-width:1;stroke-linejoin:miter;stroke-miterlimit:10;"/><text fill="#000000" font-family="Arial" font-size="13" lengthAdjust="spacing" textLength="50.6924" x="311" y="1232.2138">quorum</text></g><!--link ucarp_1 to ucarp_2--><g class="link" data-entity-1="ent0009" data-entity-2="ent0016" data-link-type="dependency" data-source-line="41" id="lnk34"><path d="M218.7518,442.8326 C242.5818,475.4126 287.5489,536.9207 311.3189,569.4307" fill="none" id="ucarp_1-ucarp_2" style="stroke:#181818;stroke-width:1;stroke-dasharray:7,7;"/><polygon fill="#181818" points="215.8,438.7969,217.8847,448.4226,218.7518,442.8326,224.3418,443.6996,215.8,438.7969" style="stroke:#181818;stroke-width:1;stroke-linejoin:miter;stroke-miterlimit:10;"/><polygon fill="#181818" points="314.27,573.4669,312.187,563.8408,311.3189,569.4307,305.729,568.5626,314.27,573.4669" style="stroke:#181818;stroke-width:1;stroke-linejoin:miter;stroke-miterlimit:10;"/><text fill="#000000" font-family="Arial" font-size="13" lengthAdjust="spacing" textLength="73.4551" x="254" y="489.6538">VIP failover</text></g><?plantuml-src hLJ1RjD04BtxAqQv9wdN1TgggfIcGaL5AD32ALArjRVfAlQkMMzI8bGfj4882JZn8L55HTL2ls7z2tm9iuxJs4v1LE8IE_FUl9rzdXdDTSXWXutyKD8-RBUW7GuIpHJy6d-5BHQ7SXGneI7WjATev2HzBcAAR-3BA9O2iLqzGWt5V4r5BsG5Id940tdCHGyEQPWKaO0Tqa6e7qkXdz68GKjn6ZhKrr91hHroUsGJDfKyJfYg0Kt0pu8ErZa8eFRgIQSht5NIS1-kDDmLV2ujTSNBTkj5fnvHGNii0AIh4SII2vqf37di21amg0qZ5ohfoqjJ3Y9l7PXV3chRhOwIRqQmq-wAjPKfxOZ6DhRVz_VTCdjcPSRDsVqyLkN6lVrS2DaFbZqlOy-Z6J-WcXxG1AlkKAsauEXBHoQwfzZkywTT4IiUKRmd6gVmSt6VJiN8JAnoADD-W0pYFLfjuczUeerMcPcR6JhmgOeHFhdrZopuv-R-aNlwH-xX7xcdV-H_-4V-sJ_oT_z8mJzlmJ-I--TL_RFIy7eWrI02c_w7mprKdyu8rEiRjjbX3RRtzZf0VPybYMCZ5YdsBb9mvlYGDHCStk1WT1UBBB9A6fPUQF5IPWaZpfoM8SLMnqEsDl7UGk0YuLBCkQJA9GlSab3ETfrIIXubDkh2-kmlIYLQCHhPBPKtm4pIXKPZ8nyDvCtwPwkzwsIfjoYfe7dAUeam_OIBc5V1oDrOFeDJC6yeH74HudBbeHmoXTsb6Hn8hMNau2PhscbCnsPYlfiVvYBzQ2Rfb_HqlkxDPM4KSFatiFDi1wPdwGValajFpNbwXfcdWAytvZhzPAxC3PXpmEUvkKd72ADqLgtDjkNK8VriwLaE2bsP2MQaxr7WctszCjVcqboOduXF6WuJ0TZ2VmC0?></g></svg>